<svg width="346" height="225" viewBox="0 0 346 225" fill="none" xmlns="http://www.w3.org/2000/svg">
<g id="solutions_step1">
<path id="Rectangle 246" d="M31 2.5H341C342.381 2.5 343.5 3.61929 343.5 5V220C343.5 221.381 342.381 222.5 341 222.5H31C29.6193 222.5 28.5 221.381 28.5 220V5C28.5 3.61929 29.6193 2.5 31 2.5Z" fill="#CCE3FF" fill-opacity="0.1" stroke="white" stroke-width="5"/>
<path id="Rectangle 247" d="M0 24C0 21.2386 2.23858 19 5 19H57C59.7614 19 62 21.2386 62 24V47C62 49.7614 59.7614 52 57 52H5C2.23858 52 0 49.7614 0 47V24Z" fill="#CCE3FF"/>
<path id="01" d="M22.81 35.25C22.81 33.186 23.206 31.56 23.998 30.372C24.802 29.184 26.092 28.59 27.868 28.59C29.644 28.59 30.928 29.184 31.72 30.372C32.524 31.56 32.926 33.186 32.926 35.25C32.926 37.338 32.524 38.976 31.72 40.164C30.928 41.352 29.644 41.946 27.868 41.946C26.092 41.946 24.802 41.352 23.998 40.164C23.206 38.976 22.81 37.338 22.81 35.25ZM29.902 35.25C29.902 34.038 29.77 33.108 29.506 32.46C29.242 31.8 28.696 31.47 27.868 31.47C27.04 31.47 26.494 31.8 26.23 32.46C25.966 33.108 25.834 34.038 25.834 35.25C25.834 36.066 25.882 36.744 25.978 37.284C26.074 37.812 26.266 38.244 26.554 38.58C26.854 38.904 27.292 39.066 27.868 39.066C28.444 39.066 28.876 38.904 29.164 38.58C29.464 38.244 29.662 37.812 29.758 37.284C29.854 36.744 29.902 36.066 29.902 35.25ZM34.2282 31.722V28.86H39.2142V42H36.0102V31.722H34.2282Z" fill="black"/>
</g>
</svg>
