<svg width="343" height="225" viewBox="0 0 343 225" fill="none" xmlns="http://www.w3.org/2000/svg">
<g id="solutions_step3">
<path id="Rectangle 253" d="M25.5 5C25.5 3.61929 26.6193 2.5 28 2.5H338C339.381 2.5 340.5 3.61929 340.5 5V220C340.5 221.381 339.381 222.5 338 222.5H28C26.6193 222.5 25.5 221.381 25.5 220V5Z" fill="#CCE3FF" fill-opacity="0.1" stroke="white" stroke-width="5"/>
<path id="Rectangle 255" d="M0 24C0 21.2386 2.23858 19 5 19H57C59.7614 19 62 21.2386 62 24V47C62 49.7614 59.7614 52 57 52H5C2.23858 52 0 49.7614 0 47V24Z" fill="#CCE3FF"/>
<path id="03" d="M18.81 35.25C18.81 33.186 19.206 31.56 19.998 30.372C20.802 29.184 22.092 28.59 23.868 28.59C25.644 28.59 26.928 29.184 27.72 30.372C28.524 31.56 28.926 33.186 28.926 35.25C28.926 37.338 28.524 38.976 27.72 40.164C26.928 41.352 25.644 41.946 23.868 41.946C22.092 41.946 20.802 41.352 19.998 40.164C19.206 38.976 18.81 37.338 18.81 35.25ZM25.902 35.25C25.902 34.038 25.77 33.108 25.506 32.46C25.242 31.8 24.696 31.47 23.868 31.47C23.04 31.47 22.494 31.8 22.23 32.46C21.966 33.108 21.834 34.038 21.834 35.25C21.834 36.066 21.882 36.744 21.978 37.284C22.074 37.812 22.266 38.244 22.554 38.58C22.854 38.904 23.292 39.066 23.868 39.066C24.444 39.066 24.876 38.904 25.164 38.58C25.464 38.244 25.662 37.812 25.758 37.284C25.854 36.744 25.902 36.066 25.902 35.25ZM30.6602 32.568C30.7082 31.284 31.1282 30.294 31.9202 29.598C32.7122 28.902 33.7862 28.554 35.1422 28.554C36.0422 28.554 36.8102 28.71 37.4462 29.022C38.0942 29.334 38.5802 29.76 38.9042 30.3C39.2402 30.84 39.4082 31.446 39.4082 32.118C39.4082 32.91 39.2102 33.558 38.8142 34.062C38.4182 34.554 37.9562 34.89 37.4282 35.07V35.142C38.1122 35.37 38.6522 35.748 39.0482 36.276C39.4442 36.804 39.6422 37.482 39.6422 38.31C39.6422 39.054 39.4682 39.714 39.1202 40.29C38.7842 40.854 38.2862 41.298 37.6262 41.622C36.9782 41.946 36.2042 42.108 35.3042 42.108C33.8642 42.108 32.7122 41.754 31.8482 41.046C30.9962 40.338 30.5462 39.27 30.4982 37.842H33.4862C33.4982 38.37 33.6482 38.79 33.9362 39.102C34.2242 39.402 34.6442 39.552 35.1962 39.552C35.6642 39.552 36.0242 39.42 36.2762 39.156C36.5402 38.88 36.6722 38.52 36.6722 38.076C36.6722 37.5 36.4862 37.086 36.1142 36.834C35.7542 36.57 35.1722 36.438 34.3682 36.438H33.7922V33.936H34.3682C34.9802 33.936 35.4722 33.834 35.8442 33.63C36.2282 33.414 36.4202 33.036 36.4202 32.496C36.4202 32.064 36.3002 31.728 36.0602 31.488C35.8202 31.248 35.4902 31.128 35.0702 31.128C34.6142 31.128 34.2722 31.266 34.0442 31.542C33.8282 31.818 33.7022 32.16 33.6662 32.568H30.6602Z" fill="black"/>
</g>
</svg>
