<svg width="346" height="225" viewBox="0 0 346 225" fill="none" xmlns="http://www.w3.org/2000/svg">
<g id="solutions_step2">
<path id="Rectangle 250" d="M31 2.5H341C342.381 2.5 343.5 3.61929 343.5 5V220C343.5 221.381 342.381 222.5 341 222.5H31C29.6193 222.5 28.5 221.381 28.5 220V5C28.5 3.61929 29.6193 2.5 31 2.5Z" fill="#CCE3FF" fill-opacity="0.1" stroke="white" stroke-width="5"/>
<path id="Rectangle 252" d="M0 24C0 21.2386 2.23858 19 5 19H57C59.7614 19 62 21.2386 62 24V47C62 49.7614 59.7614 52 57 52H5C2.23858 52 0 49.7614 0 47V24Z" fill="#CCE3FF"/>
<path id="02" d="M18.81 35.25C18.81 33.186 19.206 31.56 19.998 30.372C20.802 29.184 22.092 28.59 23.868 28.59C25.644 28.59 26.928 29.184 27.72 30.372C28.524 31.56 28.926 33.186 28.926 35.25C28.926 37.338 28.524 38.976 27.72 40.164C26.928 41.352 25.644 41.946 23.868 41.946C22.092 41.946 20.802 41.352 19.998 40.164C19.206 38.976 18.81 37.338 18.81 35.25ZM25.902 35.25C25.902 34.038 25.77 33.108 25.506 32.46C25.242 31.8 24.696 31.47 23.868 31.47C23.04 31.47 22.494 31.8 22.23 32.46C21.966 33.108 21.834 34.038 21.834 35.25C21.834 36.066 21.882 36.744 21.978 37.284C22.074 37.812 22.266 38.244 22.554 38.58C22.854 38.904 23.292 39.066 23.868 39.066C24.444 39.066 24.876 38.904 25.164 38.58C25.464 38.244 25.662 37.812 25.758 37.284C25.854 36.744 25.902 36.066 25.902 35.25ZM30.4442 39.534C30.8522 39.21 31.0382 39.06 31.0022 39.084C32.1782 38.112 33.1022 37.314 33.7742 36.69C34.4582 36.066 35.0342 35.412 35.5022 34.728C35.9702 34.044 36.2042 33.378 36.2042 32.73C36.2042 32.238 36.0902 31.854 35.8622 31.578C35.6342 31.302 35.2922 31.164 34.8362 31.164C34.3802 31.164 34.0202 31.338 33.7562 31.686C33.5042 32.022 33.3782 32.502 33.3782 33.126H30.4082C30.4322 32.106 30.6482 31.254 31.0562 30.57C31.4762 29.886 32.0222 29.382 32.6942 29.058C33.3782 28.734 34.1342 28.572 34.9622 28.572C36.3902 28.572 37.4642 28.938 38.1842 29.67C38.9162 30.402 39.2822 31.356 39.2822 32.532C39.2822 33.816 38.8442 35.01 37.9682 36.114C37.0922 37.206 35.9762 38.274 34.6202 39.318H39.4802V41.82H30.4442V39.534Z" fill="black"/>
</g>
</svg>
