<svg width="100" height="100" viewBox="0 0 100 100" fill="none" xmlns="http://www.w3.org/2000/svg">
<g id="bulbSetRound">
<circle id="backGroundRound" cx="50" cy="50" r="50" fill="#0176FF"/>
<path id="bulbRound" d="M40.5377 70.6056C40.5389 71.259 40.7591 71.899 41.1722 72.4434L43.1952 75.1122C43.5407 75.5685 44.0095 75.9426 44.5596 76.2015C45.1098 76.4603 45.7243 76.5957 46.3486 76.5957H53.6533C54.2775 76.5957 54.892 76.4603 55.4422 76.2015C55.9924 75.9426 56.4611 75.5685 56.8067 75.1122L58.8296 72.4434C59.2426 71.8989 59.4633 71.2596 59.4641 70.6056L59.4688 66.6215H40.5318L40.5377 70.6056ZM29.167 41.6885C29.167 46.298 31.1142 50.5034 34.3232 53.7166C36.2787 55.6749 39.3374 59.766 40.5034 63.2171C40.5081 63.2441 40.5117 63.2711 40.5164 63.2982H59.4842C59.489 63.2711 59.4925 63.2452 59.4973 63.2171C60.6632 59.766 63.7219 55.6749 65.6774 53.7166C68.8865 50.5034 70.8337 46.298 70.8337 41.6885C70.8337 31.5709 61.4717 23.3732 49.9352 23.4043C37.8602 23.4365 29.167 32.0239 29.167 41.6885ZM50.0003 33.3775C44.779 33.3775 40.5306 37.1061 40.5306 41.6885C40.5306 42.6069 39.6831 43.3507 38.6367 43.3507C37.5903 43.3507 36.7428 42.6069 36.7428 41.6885C36.7428 35.2724 42.6897 30.0531 50.0003 30.0531C51.0467 30.0531 51.8943 30.797 51.8943 31.7153C51.8943 32.6337 51.0467 33.3775 50.0003 33.3775Z" fill="white"/>
</g>
</svg>
