<svg width="150" height="150" viewBox="0 0 150 150" fill="none" xmlns="http://www.w3.org/2000/svg">
<g id="documentSet">
<path id="Background" d="M85.4778 121.83C46.1513 128.573 86.588 102.423 26.9887 100.746C26.9887 100.746 4.94079 67.6743 30.1999 43.6459C59.2857 15.9774 84.9849 -8.12025 107.999 39.2949C117.413 49.1864 110.961 35.1373 121.282 55.4598C137.031 86.4728 128.887 114.387 85.4778 121.83Z" fill="#0176FF"/>
<path id="document" d="M89 46.25H80.6667C80.6667 42.8027 77.6771 40 74 40C70.3229 40 67.3333 42.8027 67.3333 46.25H59C56.2396 46.25 54 48.3496 54 50.9375V85.3125C54 87.9004 56.2396 90 59 90H89C91.7604 90 94 87.9004 94 85.3125V50.9375C94 48.3496 91.7604 46.25 89 46.25ZM64 81.4062C62.6146 81.4062 61.5 80.3613 61.5 79.0625C61.5 77.7637 62.6146 76.7188 64 76.7188C65.3854 76.7188 66.5 77.7637 66.5 79.0625C66.5 80.3613 65.3854 81.4062 64 81.4062ZM64 72.0312C62.6146 72.0312 61.5 70.9863 61.5 69.6875C61.5 68.3887 62.6146 67.3438 64 67.3438C65.3854 67.3438 66.5 68.3887 66.5 69.6875C66.5 70.9863 65.3854 72.0312 64 72.0312ZM64 62.6562C62.6146 62.6562 61.5 61.6113 61.5 60.3125C61.5 59.0137 62.6146 57.9688 64 57.9688C65.3854 57.9688 66.5 59.0137 66.5 60.3125C66.5 61.6113 65.3854 62.6562 64 62.6562ZM74 43.9062C75.3854 43.9062 76.5 44.9512 76.5 46.25C76.5 47.5488 75.3854 48.5938 74 48.5938C72.6146 48.5938 71.5 47.5488 71.5 46.25C71.5 44.9512 72.6146 43.9062 74 43.9062ZM87.3333 79.8438C87.3333 80.2734 86.9583 80.625 86.5 80.625H71.5C71.0417 80.625 70.6667 80.2734 70.6667 79.8438V78.2812C70.6667 77.8516 71.0417 77.5 71.5 77.5H86.5C86.9583 77.5 87.3333 77.8516 87.3333 78.2812V79.8438ZM87.3333 70.4688C87.3333 70.8984 86.9583 71.25 86.5 71.25H71.5C71.0417 71.25 70.6667 70.8984 70.6667 70.4688V68.9062C70.6667 68.4766 71.0417 68.125 71.5 68.125H86.5C86.9583 68.125 87.3333 68.4766 87.3333 68.9062V70.4688ZM87.3333 61.0938C87.3333 61.5234 86.9583 61.875 86.5 61.875H71.5C71.0417 61.875 70.6667 61.5234 70.6667 61.0938V59.5312C70.6667 59.1016 71.0417 58.75 71.5 58.75H86.5C86.9583 58.75 87.3333 59.1016 87.3333 59.5312V61.0938Z" fill="white"/>
</g>
</svg>
