<svg width="100" height="100" viewBox="0 0 100 100" fill="none" xmlns="http://www.w3.org/2000/svg">
<g id="idCardSetRound">
<circle id="backGroundRound" cx="50" cy="50" r="50" fill="#0176FF"/>
<path id="idCardRound" d="M64 24H34C31.2396 24 29 26.2256 29 28.9688V72.0312C29 74.7744 31.2396 77 34 77H64C66.7604 77 69 74.7744 69 72.0312V28.9688C69 26.2256 66.7604 24 64 24ZM44 27.3125H54C54.9167 27.3125 55.6667 28.0578 55.6667 28.9688C55.6667 29.8797 54.9167 30.625 54 30.625H44C43.0833 30.625 42.3333 29.8797 42.3333 28.9688C42.3333 28.0578 43.0833 27.3125 44 27.3125ZM49 40.5625C52.6771 40.5625 55.6667 43.5334 55.6667 47.1875C55.6667 50.8416 52.6771 53.8125 49 53.8125C45.3229 53.8125 42.3333 50.8416 42.3333 47.1875C42.3333 43.5334 45.3229 40.5625 49 40.5625ZM60.6667 65.075C60.6667 66.1723 59.625 67.0625 58.3333 67.0625H39.6667C38.375 67.0625 37.3333 66.1723 37.3333 65.075V63.0875C37.3333 59.7957 40.4687 57.125 44.3333 57.125H44.8542C46.1354 57.6529 47.5312 57.9531 49 57.9531C50.4687 57.9531 51.875 57.6529 53.1458 57.125H53.6667C57.5312 57.125 60.6667 59.7957 60.6667 63.0875V65.075Z" fill="white"/>
</g>
</svg>
