<svg width="150" height="150" viewBox="0 0 150 150" fill="none" xmlns="http://www.w3.org/2000/svg">
<g id="timeSavingSet">
<path id="Background" d="M85.4778 121.83C46.1513 128.573 86.588 102.423 26.9887 100.746C26.9887 100.746 4.94079 67.6742 30.1999 43.6459C59.2857 15.9774 84.9849 -8.12031 107.999 39.2948C117.413 49.1864 110.961 35.1373 121.282 55.4597C137.031 86.4728 128.887 114.387 85.4778 121.83Z" fill="#0176FF"/>
<path id="timeSaving" d="M96.5 64.875C89.0375 64.875 83 71.1641 83 78.9375C83 86.7109 89.0375 93 96.5 93C103.962 93 110 86.7109 110 78.9375C110 71.1641 103.962 64.875 96.5 64.875ZM102.5 79.5527C102.5 80.0703 102.087 80.5 101.591 80.5H95.9094C95.4125 80.5 95 80.0703 95 79.5527V72.0723C95 71.5547 95.4125 71.125 95.9094 71.125H97.0906C97.5875 71.125 98 71.5547 98 72.0723V77.375H101.591C102.087 77.375 102.5 77.8047 102.5 78.3223V79.5527ZM80 78.9375C80 76.2227 80.6281 73.6543 81.7063 71.3691C80.9563 71.2227 80.1875 71.125 79.4 71.125H77.8344C75.7531 72.1211 73.4375 72.6875 71 72.6875C68.5625 72.6875 66.2563 72.1211 64.1656 71.125H62.6C55.6437 71.125 50 77.0039 50 84.25V88.3125C50 90.9004 52.0156 93 54.5 93H87.0406C82.7938 89.8848 80 84.748 80 78.9375ZM71 68C77.6281 68 83 62.4043 83 55.5C83 48.5957 77.6281 43 71 43C64.3719 43 59 48.5957 59 55.5C59 62.4043 64.3719 68 71 68Z" fill="white"/>
</g>
</svg>
