<svg width="150" height="150" viewBox="0 0 150 150" fill="none" xmlns="http://www.w3.org/2000/svg">
<g id="uniqueSet">
<path id="Background" d="M85.4778 121.83C46.1513 128.573 86.588 102.423 26.9887 100.746C26.9887 100.746 4.94079 67.6742 30.1999 43.6459C59.2857 15.9774 84.9849 -8.12031 107.999 39.2948C117.413 49.1864 110.961 35.1373 121.282 55.4597C137.031 86.4728 128.887 114.387 85.4778 121.83Z" fill="#0176FF"/>
<path id="unique" d="M50 46V60.2857H64.2857V46H50ZM63.3929 59.3929H50.8929V46.8929H63.3929V59.3929ZM67.8571 46V60.2857H82.1429V46H67.8571ZM81.25 59.3929H68.75V46.8929H81.25V59.3929ZM85.7143 46V60.2857H100V46H85.7143ZM99.1071 59.3929H86.6071V46.8929H99.1071V59.3929ZM50 63.8571V78.1429H64.2857V63.8571H50ZM63.3929 77.25H50.8929V64.75H63.3929V77.25ZM67.8571 63.8571V78.1429H82.1429V63.8571H67.8571ZM81.25 77.25H68.75V64.75H81.25V77.25ZM85.7143 63.8571V78.1429H100V63.8571H85.7143ZM99.1071 77.25H86.6071V64.75H99.1071V77.25ZM50 81.7143V96H64.2857V81.7143H50ZM63.3929 95.1071H50.8929V82.6071H63.3929V95.1071ZM67.8571 81.7143V96H82.1429V81.7143H67.8571ZM81.25 95.1071H68.75V82.6071H81.25V95.1071ZM85.7143 81.7143V96H100V81.7143H85.7143Z" fill="white"/>
</g>
</svg>
